inDegrees=yes
name=ik_lifting_orientations
DataType=double
version=3
OpenSimVersion=4.5-2024-01-10-34fd6af
endheader
time	pelvis_tilt	pelvis_list	pelvis_rotation	pelvis_tx	pelvis_ty	pelvis_tz	hip_flexion_r	hip_adduction_r	hip_rotation_r	knee_angle_r	knee_angle_r_beta	ankle_angle_r	subtalar_angle_r	mtp_angle_r	hip_flexion_l	hip_adduction_l	hip_rotation_l	knee_angle_l	knee_angle_l_beta	ankle_angle_l	subtalar_angle_l	mtp_angle_l	lumbar_extension	lumbar_bending	lumbar_rotation	arm_flex_r	arm_add_r	arm_rot_r	elbow_flex_r	pro_sup_r	wrist_flex_r	wrist_dev_r	arm_flex_l	arm_add_l	arm_rot_l	elbow_flex_l	pro_sup_l	wrist_flex_l	wrist_dev_l
0.02	-0.006216201569089791	0.004463314037633743	-91.75964935243699	0	0.9399999998679526	0	46.32493879081852	-11.35954879782891	0	60.45382678552684	1.055118322837783	-5.567696672430676	0	0	46.32493879081852	-11.35954879782891	0	60.45382678552684	1.055118322837783	-5.567696672430676	0	0	0.001453688998511457	0.005133703261210218	-0.001878507788730721	-0.2301515118907093	-0.05425042981727085	-0.005253505242395129	0.4901616147785187	1.993900312114168	0	0	0	-10.62511673395171	0	88.14170001882546	1.993900312114168	0	0
0.03	0.1836360134167158	0.2517517052257405	-91.22904297693525	0	0.9399999998679526	0	46.32388240262041	-11.35583733138066	0	60.45353867668329	1.055113294389859	-5.565686122007995	0	0	46.32388240262041	-11.35583733138066	0	60.45353867668329	1.055113294389859	-5.565686122007995	0	0	0.5636100715217105	-0.3998446737886049	-0.6313779944911305	-0.5718157547167879	0.1706403526910169	0.03293348490739748	0.5060242717823279	1.992787489564952	0	0	0	-10.62692427226193	0	88.14273700416189	1.992787489564952	0	0
0.04	0.331893138948807	0.4639155940940797	-90.78343879830747	0	0.9399999998679526	0	46.32357495169103	-11.35481652619153	0	60.45345104781077	1.055111764977514	-5.565139033183026	0	0	46.32357495169103	-11.35481652619153	0	60.45345104781077	1.055111764977514	-5.565139033183026	0	0	1.105105330111225	-0.7839757261632899	-1.390171168906407	-0.9252171054876464	0.4031243194368875	0.2805180421374093	0.5213539127909464	1.99245796642708	0	0	0	-10.62746730746076	0	88.14304407261658	1.99245796642708	0	0
0.05	0.4882294290192357	0.6789267210896167	-90.26734697039834	0	0.9399999998679526	0	46.32319721617481	-11.35348178473695	0	60.45334849238802	1.055109975047721	-5.564415219778663	0	0	46.32319721617481	-11.35348178473695	0	60.45334849238802	1.055109975047721	-5.564415219778663	0	0	1.488240455310539	-1.120668586589914	-1.744237915750377	-1.112193157528806	0.4517893400073845	0.06597877274265065	0.5429511889956571	1.992060707973835	0	0	0	-10.62811170392063	0	88.14341425830177	1.992060707973835	0	0
0.06	0.6092588057102308	0.8605153016083595	-89.72886711018892	0	0.9399999998679526	0	46.32276541466355	-11.35194819389738	0	60.45323179248047	1.055107938250098	-5.563582896332012	0	0	46.32276541466355	-11.35194819389738	0	60.45323179248047	1.055107938250098	-5.563582896332012	0	0	1.684924666739772	-1.371429460476352	-1.557377328716861	-1.052037029306997	0.5541166222701782	-0.7748433183431982	0.4948249668173219	1.991607361407705	0	0	0	-10.62884601115791	0	88.14383670950633	1.991607361407705	0	0
0.07000000000000001	0.7510088931260319	1.093841569651807	-88.98720052211739	0	0.9399999998679526	0	46.32241763241516	-11.35072270743806	0	60.45313725488505	1.055106288257791	-5.562918897557245	0	0	46.32241763241516	-11.35072270743806	0	60.45313725488505	1.055106288257791	-5.562918897557245	0	0	2.000034999858041	-1.727774509581357	-1.49565011530169	-1.070719237110667	0.7988747835719711	-1.770684413803561	0.4367942555342603	1.991241385678517	0	0	0	-10.62943993863919	0	88.14417774442933	1.991241385678517	0	0
0.08	0.9316866509264115	1.387256160660253	-88.12541879768119	0	0.9399999998679526	0	46.32208837032404	-11.34955487907968	0	60.45304825308972	1.055104734883422	-5.562285435318496	0	0	46.32208837032404	-11.34955487907968	0	60.45304825308972	1.055104734883422	-5.562285435318496	0	0	2.358148694067535	-2.086175024774015	-1.914810771863825	-0.9966229047518539	1.064779954706453	-2.068790076625169	0.3298215521254855	1.990895632065817	0	0	0	-10.63000003772468	0	88.14449993511606	1.990895632065817	0	0
0.09	1.083127039325389	1.642757113680744	-87.33836668974712	0	0.9399999998679526	0	46.32175922764093	-11.34838597679729	0	60.45295940914391	1.055103184264047	-5.5616513147173	0	0	46.32175922764093	-11.34838597679729	0	60.45295940914391	1.055103184264047	-5.5616513147173	0	0	2.753936426901417	-2.494864181577455	-2.24129884484135	-1.09034160608886	1.281003421597005	-2.324020912742665	0.2884908404122601	1.990550174812664	0	0	0	-10.63055941437757	0	88.1448218495873	1.990550174812664	0	0
0.1	1.209939860466628	1.854406147625357	-86.75226203782499	0	0.9399999998679526	0	46.32144892404619	-11.34728796120231	0	60.45287545216043	1.055101718938255	-5.561056161476981	0	0	46.32144892404619	-11.34728796120231	0	60.45287545216043	1.055101718938255	-5.561056161476981	0	0	3.025885076336208	-2.801998630556215	-2.343963781204123	-1.114645781018898	1.386607457089796	-2.782543285911535	0.2697133866905237	1.99022417329875	0	0	0	-10.63108770867779	0	88.14512563432376	1.99022417329875	0	0
0.11	1.33401414302752	2.067366379833592	-86.16515757812314	0	0.9399999998679526	0	46.32113315318588	-11.34618281934008	0	60.45278929381313	1.055100215191417	-5.560458464993494	0	0	46.32113315318588	-11.34618281934008	0	60.45278929381313	1.055100215191417	-5.560458464993494	0	0	3.297639031217718	-3.115516559081892	-2.44031628915782	-1.170225374635387	1.496725592391808	-3.462076859556602	0.2623930088993187	1.989891329885686	0	0	0	-10.63162858873286	0	88.14543579504327	1.989891329885686	0	0
0.12	1.482419499564752	2.32489424924882	-85.56348947920186	0	0.9399999998679526	0	46.32078511104748	-11.34496773704852	0	60.45269418237117	1.055098555183598	-5.559801702752491	0	0	46.32078511104748	-11.34496773704852	0	60.45269418237117	1.055098555183598	-5.559801702752491	0	0	3.810356702413708	-3.656539366324702	-2.59492396918287	-1.437439670233011	1.796737124439126	-4.081219025836186	0.2554230578705537	1.989524229393723	0	0	0	-10.63222545788865	0	88.14577787836137	1.989524229393723	0	0
0.13	1.656184163375141	2.625862885607257	-84.48886405322689	0	0.9399999998679526	0	46.32031319046775	-11.34329946392254	0	60.45256657349591	1.05509632798857	-5.558898019724349	0	0	46.32031319046775	-11.34329946392254	0	60.45256657349591	1.05509632798857	-5.558898019724349	0	0	4.266170156213048	-4.185047783999693	-3.294554871803793	-1.553159975479848	2.098043946369631	-4.403504576746577	0.209300653142361	1.989028461696438	0	0	0	-10.63302878095239	0	88.14623985983441	1.989028461696438	0	0
0.14	1.798116919163673	2.964844645201977	-83.41549715327163	0	0.9399999998679526	0	46.31999366574141	-11.34217220909385	0	60.45248007871662	1.055094818369886	-5.558287739580187	0	0	46.31999366574141	-11.34217220909385	0	60.45248007871662	1.055094818369886	-5.558287739580187	0	0	4.641551601568271	-4.651334238051755	-3.726182419592202	-1.501387146333244	2.300124023471544	-4.943996215282907	0.1692915442140912	1.988692627410842	0	0	0	-10.63357316531117	0	88.14655280730122	1.988692627410842	0	0
0.15	1.905482232541779	3.177466630771846	-82.85963815356753	0	0.9399999998679526	0	46.31972103695828	-11.34121232798478	0	60.45240619407694	1.055093528839657	-5.557768348084605	0	0	46.31972103695828	-11.34121232798478	0	60.45240619407694	1.055093528839657	-5.557768348084605	0	0	4.984864951607342	-5.043642759306953	-3.940774906336032	-1.529240049053012	2.496505034338573	-5.176729428653849	0.1410868824379123	1.988405940732024	0	0	0	-10.63403806654407	0	88.1468199565751	1.988405940732024	0	0
0.16	1.969577784983923	3.307227493099217	-82.40906976611579	0	0.9399999998679526	0	46.3193598055317	-11.33995629331123	0	60.45230734291787	1.055091803561462	-5.55709037836707	0	0	46.3193598055317	-11.33995629331123	0	60.45230734291787	1.055091803561462	-5.55709037836707	0	0	5.283405126857962	-5.363411318893858	-4.520668281199113	-1.703244523118108	2.640005003626367	-5.10956025537091	0.1353786799900581	1.9880246368882	0	0	0	-10.6346583816836	0	88.14717527541697	1.9880246368882	0	0
0.17	2.038289708238526	3.43809774690763	-82.0658489042126	0	0.9399999998679526	0	46.31908323288446	-11.33897367315818	0	60.45223299893275	1.055090506014142	-5.556557917559782	0	0	46.31908323288446	-11.33897367315818	0	60.45223299893275	1.055090506014142	-5.556557917559782	0	0	5.286562290674332	-5.388866805947377	-4.939927796705061	-1.59160403013115	2.515046006301192	-5.387072480349818	0.1354189310035255	1.987734685666274	0	0	0	-10.63512735115449	0	88.14744546647947	1.987734685666274	0	0
